<svg version="1.1" id="Layer_1" xmlns="http://www.w3.org/2000/svg" xmlns:xlink="http://www.w3.org/1999/xlink" x="0px" y="0px"
	 width="100%" viewBox="0 0 437 181" enable-background="new 0 0 437 181" xml:space="preserve">
<path fill="#444245" opacity="1.000000" stroke="none" 
	d="
M1.000000,108.000000 
	C1.000000,101.978844 1.000000,95.957695 1.366358,89.322716 
	C1.887610,88.069283 2.076138,87.435730 2.192591,86.789192 
	C8.859776,49.774002 38.443104,24.224794 75.529381,23.459499 
	C109.874466,22.750769 141.214859,47.940506 148.838669,82.610909 
	C149.635651,86.235329 150.989029,87.369102 154.723068,87.361015 
	C206.360580,87.249138 257.998444,87.306656 309.636230,87.322449 
	C313.239777,87.323555 316.843323,87.322601 320.968628,87.322601 
	C320.486450,85.825966 320.381073,84.992447 319.981201,84.339211 
	C317.206848,79.807137 314.492889,75.230911 311.532990,70.820915 
	C301.779816,56.289627 302.052429,40.739319 312.621185,26.775127 
	C322.004578,14.377110 335.063660,7.828053 349.729004,3.954783 
	C353.484192,2.963001 357.242920,1.984565 361.000000,1.000000 
	C367.354401,1.000000 373.708801,1.000000 380.689392,1.361684 
	C408.046356,6.450398 430.216736,17.015759 438.000000,46.000000 
	C438.000000,49.030594 438.000000,52.061188 437.652710,55.666077 
	C433.023102,64.066338 428.648987,71.843697 424.474518,79.726791 
	C407.341492,112.080956 390.272247,144.468903 373.161774,176.835022 
	C372.586823,177.922592 371.821747,178.909637 370.901215,180.316605 
	C370.009583,178.849609 369.369598,177.909286 368.840851,176.910126 
	C358.022400,156.467987 347.064575,136.097000 336.528137,115.510376 
	C334.235168,111.030289 331.654755,109.433395 326.640259,109.453018 
	C269.178101,109.677948 211.714996,109.695435 154.252258,109.648933 
	C150.727295,109.646088 149.506042,110.744942 148.738907,114.232277 
	C145.154465,130.526825 136.902222,144.287476 124.074547,154.881638 
	C80.024178,191.262115 14.964337,168.309357 2.827281,112.291367 
	C2.503940,110.799004 1.621639,109.427734 1.000000,108.000000 
M114.732513,65.738174 
	C114.483208,65.519333 114.233902,65.300491 113.394119,64.759483 
	C88.915352,37.892181 47.150661,44.958885 31.619808,74.949829 
	C18.745266,99.811287 28.796930,130.917526 54.224232,142.915543 
	C73.178627,151.859283 91.112946,148.970688 108.270683,136.685806 
	C108.548424,136.533478 108.749268,136.311523 109.161217,135.516510 
	C109.479767,135.306061 109.798309,135.095627 110.675964,134.773102 
	C111.130630,134.196487 111.585297,133.619888 112.000000,133.000000 
	C112.000000,133.000000 112.043221,133.040115 112.632217,132.862259 
	C113.074020,132.214996 113.515823,131.567719 113.978729,130.979721 
	C113.978729,130.979721 113.916100,130.973938 114.369850,130.684006 
	C114.553619,130.379150 114.737389,130.074295 114.952126,129.938217 
	C114.952126,129.938217 114.783264,129.968689 115.228676,129.634216 
	C115.411377,129.316376 115.594070,128.998535 115.778534,128.794312 
	C115.778534,128.794312 115.664894,128.794083 116.145927,128.498856 
	C116.336433,128.177582 116.526939,127.856316 116.742470,127.779594 
	C116.742470,127.779594 116.497711,127.802391 117.005432,127.493431 
	C117.228180,126.987411 117.450920,126.481384 117.715866,125.759811 
	C117.715866,125.759811 117.916557,125.670547 118.534111,125.558800 
	C118.902199,124.641212 119.270287,123.723633 119.611832,122.685928 
	C119.611832,122.685928 119.731201,122.656197 120.208794,122.364098 
	C120.402184,121.846535 120.595573,121.328972 120.813843,120.877617 
	C120.813843,120.877617 120.746315,120.898651 121.161369,120.504608 
	C121.303276,119.980347 121.445183,119.456085 121.633896,118.669365 
	C121.633896,118.669365 121.848373,118.511002 122.333054,118.140442 
	C122.506981,117.543724 122.680908,116.946999 122.782265,116.141724 
	C122.782265,116.141724 122.951424,115.999809 123.325661,115.549736 
	C123.416313,114.999290 123.506966,114.448845 123.719498,113.304634 
	C123.818802,113.128677 123.918106,112.952713 124.541412,112.430450 
	C124.789711,110.639771 125.038010,108.849098 125.268951,106.294014 
	C125.386978,105.799736 125.505005,105.305466 126.186966,104.404160 
	C127.880249,96.861610 127.673203,89.526688 123.558617,82.347298 
	C123.558617,82.347298 123.519325,82.003235 123.625633,81.444267 
	C123.388672,80.923820 123.151711,80.403366 122.792641,79.793709 
	C122.792641,79.793709 122.880493,79.670624 122.852982,79.020187 
	C122.516350,78.522247 122.179718,78.024307 121.613762,77.343719 
	C121.613762,77.343719 121.557808,77.055946 121.592529,76.490028 
	C121.303291,75.999916 121.014061,75.509796 120.875793,75.083946 
	C120.875793,75.083946 120.810646,75.234520 120.782951,74.662544 
	C120.447693,74.254150 120.112434,73.845764 119.603920,73.373192 
	C119.603920,73.373192 119.595230,73.188629 119.550812,72.787521 
	C119.460915,72.520454 119.295494,72.313728 118.882751,72.061073 
	C118.882751,72.061073 118.908409,71.860718 118.927109,71.263298 
	C118.328529,70.575966 117.729942,69.888634 116.889267,69.030533 
	C116.889267,69.030533 116.833031,68.739662 116.758163,68.285484 
	C116.431366,67.998390 116.104568,67.711288 115.605919,67.380028 
	C115.605919,67.380028 115.582153,67.204193 115.464424,66.736374 
	C115.312172,66.436150 115.090805,66.200790 114.949425,66.061142 
	C114.949425,66.061142 114.918091,66.210121 114.732513,65.738174 
M336.856079,72.376495 
	C341.533203,92.016647 359.622803,103.438316 379.239685,98.978691 
	C397.177216,94.900841 409.281616,76.030457 405.253998,57.845860 
	C401.447754,40.660824 385.454559,27.458231 365.860901,30.248968 
	C345.871246,33.096107 333.148773,51.826614 336.856079,72.376495 
z"/>
<path fill="#FEEA3B" opacity="1.000000" stroke="none" 
	d="
M1.000000,108.468658 
	C1.621639,109.427734 2.503940,110.799004 2.827281,112.291367 
	C14.964337,168.309357 80.024178,191.262115 124.074547,154.881638 
	C136.902222,144.287476 145.154465,130.526825 148.738907,114.232277 
	C149.506042,110.744942 150.727295,109.646088 154.252258,109.648933 
	C211.714996,109.695435 269.178101,109.677948 326.640259,109.453018 
	C331.654755,109.433395 334.235168,111.030289 336.528137,115.510376 
	C347.064575,136.097000 358.022400,156.467987 368.840851,176.910126 
	C369.369598,177.909286 370.009583,178.849609 370.901215,180.316605 
	C371.821747,178.909637 372.586823,177.922592 373.161774,176.835022 
	C390.272247,144.468903 407.341492,112.080956 424.474518,79.726791 
	C428.648987,71.843697 433.023102,64.066338 437.652710,56.120186 
	C438.000000,97.971138 438.000000,139.942276 438.000000,181.943604 
	C292.333313,181.943604 146.666656,181.943604 1.000000,181.943604 
	C1.000000,157.570587 1.000000,133.253952 1.000000,108.468658 
z"/>
<path fill="#FFEB3B" opacity="1.000000" stroke="none" 
	d="
M360.531342,1.000000 
	C357.242920,1.984565 353.484192,2.963001 349.729004,3.954783 
	C335.063660,7.828053 322.004578,14.377110 312.621185,26.775127 
	C302.052429,40.739319 301.779816,56.289627 311.532990,70.820915 
	C314.492889,75.230911 317.206848,79.807137 319.981201,84.339211 
	C320.381073,84.992447 320.486450,85.825966 320.968628,87.322601 
	C316.843323,87.322601 313.239777,87.323555 309.636230,87.322449 
	C257.998444,87.306656 206.360580,87.249138 154.723068,87.361015 
	C150.989029,87.369102 149.635651,86.235329 148.838669,82.610909 
	C141.214859,47.940506 109.874466,22.750769 75.529381,23.459499 
	C38.443104,24.224794 8.859776,49.774002 2.192591,86.789192 
	C2.076138,87.435730 1.887610,88.069283 1.366358,88.854446 
	C1.000000,59.695332 1.000000,30.390663 1.000000,1.000000 
	C120.687546,1.000000 240.375122,1.000000 360.531342,1.000000 
z"/>
<path fill="#FCE93C" opacity="1.000000" stroke="none" 
	d="
M438.000000,45.531342 
	C430.216736,17.015759 408.046356,6.450398 381.157806,1.361684 
	C399.918152,1.000000 418.836273,1.000000 438.000000,1.000000 
	C438.000000,15.686649 438.000000,30.374666 438.000000,45.531342 
z"/>
<path fill="#FBEA0B" opacity="1.000000" stroke="none" 
	d="
M125.623039,104.811188 
	C125.505005,105.305466 125.386978,105.799736 125.141922,107.023239 
	C124.682396,109.427223 124.349892,111.101990 124.017395,112.776756 
	C123.918106,112.952713 123.818802,113.128677 123.468842,113.804932 
	C123.129272,114.870087 123.040352,115.434952 122.951431,115.999809 
	C122.951424,115.999809 122.782265,116.141724 122.571762,116.450989 
	C122.190300,117.343834 122.019333,117.927414 121.848373,118.511002 
	C121.848373,118.511002 121.633896,118.669365 121.406616,118.977905 
	C121.034996,119.823845 120.890656,120.361252 120.746323,120.898651 
	C120.746315,120.898651 120.813843,120.877617 120.568359,121.002457 
	C120.125641,121.636932 119.928421,122.146568 119.731201,122.656197 
	C119.731201,122.656197 119.611832,122.685928 119.394936,122.915382 
	C118.757545,123.986740 118.337051,124.828644 117.916565,125.670547 
	C117.916557,125.670547 117.715866,125.759811 117.464134,126.011765 
	C116.974167,126.776611 116.735939,127.289505 116.497711,127.802391 
	C116.497711,127.802391 116.742470,127.779594 116.473160,127.790970 
	C116.024193,128.132919 115.844543,128.463501 115.664894,128.794083 
	C115.664894,128.794083 115.778534,128.794312 115.519958,128.866867 
	C115.102013,129.282516 114.942642,129.625595 114.783264,129.968689 
	C114.783264,129.968689 114.952126,129.938217 114.679939,129.968506 
	C114.243866,130.323853 114.079979,130.648895 113.916100,130.973938 
	C113.916100,130.973938 113.978729,130.979721 113.702827,131.077423 
	C112.965691,131.796783 112.504456,132.418457 112.043221,133.040115 
	C112.043221,133.040115 112.000000,133.000000 111.756454,133.114609 
	C111.047554,133.781204 110.582207,134.333191 110.116852,134.885178 
	C109.798309,135.095627 109.479767,135.306061 108.783188,135.810699 
	C108.091110,136.252655 107.902985,136.497284 107.840767,136.838791 
	C91.112946,148.970688 73.178627,151.859283 54.224232,142.915543 
	C28.796930,130.917526 18.745266,99.811287 31.619808,74.949829 
	C47.150661,44.958885 88.915352,37.892181 113.751945,65.172867 
	C114.379211,65.794212 114.648651,66.002167 114.918091,66.210121 
	C114.918091,66.210121 114.949425,66.061142 114.917297,66.296997 
	C115.011833,66.866608 115.244156,67.090385 115.582153,67.204193 
	C115.582153,67.204193 115.605919,67.380028 115.739296,67.614777 
	C116.192795,68.146233 116.512917,68.442947 116.833031,68.739662 
	C116.833031,68.739662 116.889267,69.030533 117.053421,69.382271 
	C117.781181,70.442909 118.344795,71.151817 118.908409,71.860718 
	C118.908409,71.860718 118.882751,72.061073 118.965530,72.324188 
	C119.120468,72.887901 119.302773,73.088341 119.595230,73.188629 
	C119.595230,73.188629 119.603920,73.373192 119.724762,73.663971 
	C120.167274,74.381348 120.488960,74.807938 120.810646,75.234520 
	C120.810646,75.234520 120.875793,75.083946 120.818039,75.344131 
	C121.026123,76.088196 121.291962,76.572075 121.557808,77.055946 
	C121.557808,77.055946 121.613762,77.343719 121.751534,77.731766 
	C122.219704,78.636742 122.550102,79.153687 122.880493,79.670624 
	C122.880493,79.670624 122.792641,79.793709 122.845108,80.132431 
	C123.104820,80.981842 123.312073,81.492538 123.519333,82.003235 
	C123.519325,82.003235 123.558617,82.347298 123.689728,82.833031 
	C124.205162,86.718620 124.670006,90.111809 124.952232,93.520119 
	C125.263290,97.276566 125.406639,101.046906 125.623039,104.811188 
z"/>
<path fill="#FAEA0C" opacity="1.000000" stroke="none" 
	d="
M336.786896,71.956390 
	C333.148773,51.826614 345.871246,33.096107 365.860901,30.248968 
	C385.454559,27.458231 401.447754,40.660824 405.253998,57.845860 
	C409.281616,76.030457 397.177216,94.900841 379.239685,98.978691 
	C359.622803,103.438316 341.533203,92.016647 336.786896,71.956390 
z"/>
<path fill="#544E0E" opacity="1.000000" stroke="none" 
	d="
M125.905006,104.607674 
	C125.406639,101.046906 125.263290,97.276566 124.952232,93.520119 
	C124.670006,90.111809 124.205162,86.718620 123.812286,82.955345 
	C127.673203,89.526688 127.880249,96.861610 125.905006,104.607674 
z"/>
<path fill="#544E0E" opacity="1.000000" stroke="none" 
	d="
M124.279404,112.603607 
	C124.349892,111.101990 124.682396,109.427223 125.150604,107.405441 
	C125.038010,108.849098 124.789711,110.639771 124.279404,112.603607 
z"/>
<path fill="#544E0E" opacity="1.000000" stroke="none" 
	d="
M118.917755,71.562012 
	C118.344795,71.151817 117.781181,70.442909 117.174469,69.467651 
	C117.729942,69.888634 118.328529,70.575966 118.917755,71.562012 
z"/>
<path fill="#544E0E" opacity="1.000000" stroke="none" 
	d="
M118.225342,125.614670 
	C118.337051,124.828644 118.757545,123.986740 119.408203,122.975441 
	C119.270287,123.723633 118.902199,124.641212 118.225342,125.614670 
z"/>
<path fill="#544E0E" opacity="1.000000" stroke="none" 
	d="
M112.337723,132.951187 
	C112.504456,132.418457 112.965691,131.796783 113.692276,131.047791 
	C113.515823,131.567719 113.074020,132.214996 112.337723,132.951187 
z"/>
<path fill="#544E0E" opacity="1.000000" stroke="none" 
	d="
M110.396408,134.829132 
	C110.582207,134.333191 111.047554,133.781204 111.776428,133.136261 
	C111.585297,133.619888 111.130630,134.196487 110.396408,134.829132 
z"/>
<path fill="#544E0E" opacity="1.000000" stroke="none" 
	d="
M116.751572,127.647911 
	C116.735939,127.289505 116.974167,126.776611 117.443031,126.119545 
	C117.450920,126.481384 117.228180,126.987411 116.751572,127.647911 
z"/>
<path fill="#544E0E" opacity="1.000000" stroke="none" 
	d="
M119.970001,122.510147 
	C119.928421,122.146568 120.125641,121.636932 120.555916,120.969360 
	C120.595573,121.328972 120.402184,121.846535 119.970001,122.510147 
z"/>
<path fill="#544E0E" opacity="1.000000" stroke="none" 
	d="
M120.953842,120.701630 
	C120.890656,120.361252 121.034996,119.823845 121.383209,119.109131 
	C121.445183,119.456085 121.303276,119.980347 120.953842,120.701630 
z"/>
<path fill="#544E0E" opacity="1.000000" stroke="none" 
	d="
M122.090714,118.325722 
	C122.019333,117.927414 122.190300,117.343834 122.608047,116.555267 
	C122.680908,116.946999 122.506981,117.543724 122.090714,118.325722 
z"/>
<path fill="#544E0E" opacity="1.000000" stroke="none" 
	d="
M123.572479,81.723755 
	C123.312073,81.492538 123.104820,80.981842 122.906158,80.177032 
	C123.151711,80.403366 123.388672,80.923820 123.572479,81.723755 
z"/>
<path fill="#544E0E" opacity="1.000000" stroke="none" 
	d="
M123.138550,115.774773 
	C123.040352,115.434952 123.129272,114.870087 123.407913,114.101814 
	C123.506966,114.448845 123.416313,114.999290 123.138550,115.774773 
z"/>
<path fill="#544E0E" opacity="1.000000" stroke="none" 
	d="
M122.866737,79.345406 
	C122.550102,79.153687 122.219704,78.636742 121.866196,77.823090 
	C122.179718,78.024307 122.516350,78.522247 122.866737,79.345406 
z"/>
<path fill="#544E0E" opacity="1.000000" stroke="none" 
	d="
M121.575165,76.772987 
	C121.291962,76.572075 121.026123,76.088196 120.742554,75.312004 
	C121.014061,75.509796 121.303291,75.999916 121.575165,76.772987 
z"/>
<path fill="#544E0E" opacity="1.000000" stroke="none" 
	d="
M120.796799,74.948532 
	C120.488960,74.807938 120.167274,74.381348 119.811386,73.696068 
	C120.112434,73.845764 120.447693,74.254150 120.796799,74.948532 
z"/>
<path fill="#544E0E" opacity="1.000000" stroke="none" 
	d="
M116.795593,68.512573 
	C116.512917,68.442947 116.192795,68.146233 115.825226,67.636856 
	C116.104568,67.711288 116.431366,67.998390 116.795593,68.512573 
z"/>
<path fill="#544E0E" opacity="1.000000" stroke="none" 
	d="
M119.573021,72.988075 
	C119.302773,73.088341 119.120468,72.887901 119.051430,72.377319 
	C119.295494,72.313728 119.460915,72.520454 119.573021,72.988075 
z"/>
<path fill="#544E0E" opacity="1.000000" stroke="none" 
	d="
M115.905411,128.646469 
	C115.844543,128.463501 116.024193,128.132919 116.460648,127.668701 
	C116.526939,127.856316 116.336433,128.177582 115.905411,128.646469 
z"/>
<path fill="#544E0E" opacity="1.000000" stroke="none" 
	d="
M115.005974,129.801453 
	C114.942642,129.625595 115.102013,129.282516 115.519073,128.810059 
	C115.594070,128.998535 115.411377,129.316376 115.005974,129.801453 
z"/>
<path fill="#544E0E" opacity="1.000000" stroke="none" 
	d="
M114.142975,130.828979 
	C114.079979,130.648895 114.243866,130.323853 114.664452,129.884125 
	C114.737389,130.074295 114.553619,130.379150 114.142975,130.828979 
z"/>
<path fill="#544E0E" opacity="1.000000" stroke="none" 
	d="
M115.523285,66.970284 
	C115.244156,67.090385 115.011833,66.866608 114.842758,66.281570 
	C115.090805,66.200790 115.312172,66.436150 115.523285,66.970284 
z"/>
<path fill="#544E0E" opacity="1.000000" stroke="none" 
	d="
M114.825302,65.974152 
	C114.648651,66.002167 114.379211,65.794212 114.047180,65.333954 
	C114.233902,65.300491 114.483208,65.519333 114.825302,65.974152 
z"/>
<path fill="#544E0E" opacity="1.000000" stroke="none" 
	d="
M108.055725,136.762299 
	C107.902985,136.497284 108.091110,136.252655 108.639183,136.062424 
	C108.749268,136.311523 108.548424,136.533478 108.055725,136.762299 
z"/>
</svg>